<svg xmlns="http://www.w3.org/2000/svg" viewBox="0 0 404.01 127"><defs><style>.cls-1{fill:#a7bf2f;}</style></defs><title>Ativo 2</title><g id="Camada_2" data-name="Camada 2"><g id="Camada_1-2" data-name="Camada 1"><path class="cls-1" d="M185.27,84.34l-2.58,2.06A14.22,14.22,0,0,0,177.56,82,14.55,14.55,0,0,0,171,80.52a14,14,0,0,0-7.25,2,13.79,13.79,0,0,0-5.17,5.25,15,15,0,0,0-1.83,7.41,14.2,14.2,0,0,0,4.1,10.38,13.93,13.93,0,0,0,10.35,4.17,14.35,14.35,0,0,0,11.5-5.6l2.58,2a16.73,16.73,0,0,1-6.1,5A18.55,18.55,0,0,1,171,112.9q-8.58,0-13.54-5.94a18.41,18.41,0,0,1-4.16-12.12,17.19,17.19,0,0,1,5-12.57A17,17,0,0,1,171,77.17a18,18,0,0,1,8.27,1.88A16.25,16.25,0,0,1,185.27,84.34Z"/><path class="cls-1" d="M205.2,78l15.25,34h-3.53l-5.14-11.2h-14.1l-5.09,11.2h-3.65L204.4,78Zm-.42,7.23-5.6,12.32h11.18Z"/><path class="cls-1" d="M225.7,78h6.52a37.69,37.69,0,0,1,7.38.47,8.38,8.38,0,0,1,4.74,3,8.76,8.76,0,0,1,1.82,5.62A9.37,9.37,0,0,1,244.9,92a7.9,7.9,0,0,1-3.59,3.18,16,16,0,0,1-6.45,1.1l11.77,15.8h-4l-11.76-15.8H229v15.8H225.7ZM229,81.35V92.92l5.63,0a13.6,13.6,0,0,0,4.85-.64,5.07,5.07,0,0,0,2.45-2.07,5.9,5.9,0,0,0,.88-3.18,5.7,5.7,0,0,0-.89-3.11,5.1,5.1,0,0,0-2.34-2,14,14,0,0,0-4.81-.6Z"/><path class="cls-1" d="M250.67,78h3.56l10.84,26.29,11-26.29h3.56l-14.23,34h-.71Z"/><path class="cls-1" d="M298.51,78l15.26,34h-3.54l-5.14-11.2H291l-5.1,11.2h-3.65l15.46-34Zm-.41,7.23-5.61,12.32h11.19Z"/><path class="cls-1" d="M318.84,78h3.27v30.74h12.58v3.29H318.84Z"/><path class="cls-1" d="M339.83,78h3.27V92.29h16.66V78H363v34h-3.27V95.62H343.1v16.43h-3.27Z"/><path class="cls-1" d="M386.56,77.17A16.61,16.61,0,0,1,399,82.33a18.59,18.59,0,0,1,0,25.37,17,17,0,0,1-24.47,0,17.37,17.37,0,0,1-5-12.54,18.69,18.69,0,0,1,2.28-9.08A16.94,16.94,0,0,1,378,79.54,16.25,16.25,0,0,1,386.56,77.17Zm.15,3.3a13.07,13.07,0,0,0-6.88,2,13.9,13.9,0,0,0-5.08,5.3,15.21,15.21,0,0,0-1.83,7.43,14.2,14.2,0,0,0,4,10.25,13.1,13.1,0,0,0,9.75,4.17,13.73,13.73,0,0,0,12.11-7.17A15.34,15.34,0,0,0,400.63,95a15,15,0,0,0-1.81-7.33,13.91,13.91,0,0,0-5.12-5.24A13.43,13.43,0,0,0,386.71,80.47Z"/><path class="cls-1" d="M153.59,13.9h9l21,32.29V13.9h9.34V63h-9l-21-32.2V63h-9.34Z"/><path class="cls-1" d="M204.13,13.9h26.79V23H213.4v8.88h17.52v9H213.4V53.8h17.52V63H204.13Z"/><path class="cls-1" d="M239.63,13.9H249V54.07h13.61V63H239.63Z"/><path class="cls-1" d="M295.44,20.57l-6.92,6.11q-3.64-5.07-7.42-5.07a4.54,4.54,0,0,0-3,1,2.88,2.88,0,0,0-1.17,2.22,3.82,3.82,0,0,0,.84,2.34,62.09,62.09,0,0,0,6.85,6.3q5.34,4.47,6.48,5.64a19.33,19.33,0,0,1,4,5.49,13.68,13.68,0,0,1,1.18,5.72,13.12,13.12,0,0,1-4.17,10,15.19,15.19,0,0,1-10.89,3.94,16.21,16.21,0,0,1-9.13-2.57,20.22,20.22,0,0,1-6.66-8.07l7.85-4.74q3.54,6.51,8.15,6.51a6,6,0,0,0,4-1.41,4.16,4.16,0,0,0,1.64-3.23,5.59,5.59,0,0,0-1.24-3.34,35.74,35.74,0,0,0-5.44-5.1q-8-6.54-10.36-10.09a12.82,12.82,0,0,1-2.34-7.09,11.59,11.59,0,0,1,3.89-8.76,13.5,13.5,0,0,1,9.6-3.65,15.1,15.1,0,0,1,7,1.7A25.6,25.6,0,0,1,295.44,20.57Z"/><path class="cls-1" d="M328.38,12.67a24.37,24.37,0,0,1,17.91,7.54,25.05,25.05,0,0,1,7.49,18.38,24.8,24.8,0,0,1-7.39,18.18,25.62,25.62,0,0,1-36.3-.2,25.32,25.32,0,0,1-7.31-18.15,25.43,25.43,0,0,1,3.4-12.94,25.66,25.66,0,0,1,22.2-12.81Zm-.1,9.14a15.38,15.38,0,0,0-11.45,4.74,16.46,16.46,0,0,0-4.65,12q0,8.14,5.85,12.88a16.07,16.07,0,0,0,10.42,3.7,15.2,15.2,0,0,0,11.32-4.81,16.34,16.34,0,0,0,4.67-11.84,16.4,16.4,0,0,0-4.71-11.86A15.36,15.36,0,0,0,328.28,21.81Z"/><path class="cls-1" d="M401.92,63h-9.34V30.78l-21,32.2h-9V13.9H372V46.19L393,13.9h9Z"/><path class="cls-1" d="M0,0V127H127V0ZM83.66,100.65H73.79L49.18,66l2,16.44,2.56-4.54,7.53,11.4-7.92,11.24-.09.12H43.34L25.68,26.36H44.23l.25.43,19,33.73,8.07,14.29,4.3,7.62,2-16.44-4.11,5.75L65.29,57.37,82.53,26.79l.25-.43h18.55Z"/></g></g></svg>