<svg xmlns="http://www.w3.org/2000/svg" viewBox="0 0 102.83 102.83"><defs><style>.cls-1{fill:#9cc438;}.cls-2{fill:none;stroke:#9cc438;stroke-miterlimit:10;stroke-width:2.83px;}</style></defs><title>Ativo 9</title><g id="Camada_2" data-name="Camada 2"><g id="Camada_1-2" data-name="Camada 1"><path class="cls-1" d="M45.45,49.76c.38.35.63.63.92.85,5.11,3.66,6.77,7.75,5.31,13.09a13.14,13.14,0,0,1-11.77,9.52c-6.62.2-13.25,0-19.88.08-1.81,0-2.61-.75-2.61-2.58q0-19.3,0-38.6c0-1.83.81-2.58,2.62-2.57,6.53,0,13.06-.16,19.58.06a10.78,10.78,0,0,1,8.64,16.48C47.5,47.3,46.52,48.37,45.45,49.76Zm-12.21,15c1.44,0,2.88,0,4.31,0,4-.07,5.87-1.75,5.93-5.38s-1.8-5.52-5.73-5.69c-3-.13-5.94.07-8.9-.09-2.52-.14-3.38.88-3.34,3.34C25.66,66.2,24.55,64.61,33.24,64.77Zm-.76-26.65v0a27,27,0,0,0-4.59.07c-.83.15-2.06,1-2.17,1.64a22,22,0,0,0,0,5.73c.07.63,1,1.64,1.59,1.65a79.87,79.87,0,0,0,10.61-.27c2.36-.27,3.66-2.21,3.48-4.59a4.21,4.21,0,0,0-4.3-4.19C35.56,38,34,38.12,32.48,38.12Z"/><path class="cls-1" d="M75.24,57.77c-3.07,0-6.15,0-9.22,0-2.33,0-2.78,1.2-2.19,3.2.9,3.08,3.82,5.86,6.72,6,3.21.12,5.77-1.06,7.18-4.24.85-1.89,6.79-3.08,8.13-1.56.5.55.39,2,.09,2.85-2.19,6.26-9.44,10.18-16.86,9.22S55.76,66.66,55,59.66c-.9-8.48,2.93-15.42,9.9-18,7.63-2.77,15.58-.37,19.93,6a10.78,10.78,0,0,1,1,1.75c3,6.72,2,8.26-5.12,8.26H75.24ZM78,53.5c-.43-4.24-3.52-6.94-7.28-6.64s-6.58,3-6.49,6.64Z"/><path class="cls-1" d="M70.93,38.06c-2.4,0-4.8,0-7.21,0-2.23.05-2.41-1.36-2.39-3.06s0-3.18,2.28-3.17h15c2.29,0,2.22,1.6,2.25,3.2s-.21,3.08-2.42,3C75.93,38,73.43,38.06,70.93,38.06Z"/><rect class="cls-2" x="1.42" y="1.42" width="100" height="100"/></g></g></svg>