<svg xmlns="http://www.w3.org/2000/svg" viewBox="0 0 100 100"><defs><style>.cls-1{fill:#8ecc00;}.cls-2{fill:#040506;}</style></defs><title>Ativo 12</title><g id="Camada_2" data-name="Camada 2"><g id="Camada_1-2" data-name="Camada 1"><rect class="cls-1" width="100" height="100"/><path class="cls-2" d="M44,48.34a12.42,12.42,0,0,0,.92.85c5.11,3.67,6.77,7.75,5.31,13.09a13.15,13.15,0,0,1-11.77,9.53c-6.62.19-13.25,0-19.87.07-1.82,0-2.62-.75-2.62-2.58Q16,50,16,30.7c0-1.83.81-2.58,2.62-2.57,6.53,0,13.07-.16,19.59.06a10.78,10.78,0,0,1,8.63,16.48C46.09,45.88,45.1,47,44,48.34Zm-12.21,15c1.44,0,2.88,0,4.31,0,4-.08,5.87-1.76,5.94-5.38s-1.81-5.52-5.73-5.7c-3-.13-6,.07-8.91-.09-2.52-.14-3.38.88-3.34,3.34C24.24,64.78,23.14,63.19,31.82,63.35ZM31.06,36.7v0a27,27,0,0,0-4.59.07c-.83.15-2.06,1-2.16,1.64a21.55,21.55,0,0,0,0,5.73c.08.63,1,1.64,1.59,1.65a78.18,78.18,0,0,0,10.61-.27A4,4,0,0,0,40,40.92a4.22,4.22,0,0,0-4.31-4.2C34.14,36.63,32.6,36.7,31.06,36.7Z"/><path class="cls-2" d="M73.83,56.35H64.6c-2.33,0-2.78,1.2-2.19,3.2.9,3.07,3.83,5.85,6.72,6,3.21.12,5.77-1.06,7.18-4.23.85-1.9,6.79-3.09,8.13-1.57.5.56.39,2,.09,2.85-2.19,6.27-9.44,10.18-16.86,9.22S54.34,65.24,53.6,58.24c-.9-8.48,2.93-15.42,9.9-18,7.63-2.78,15.59-.38,19.94,6a11.63,11.63,0,0,1,1,1.76c3,6.71,2,8.26-5.12,8.26H73.83Zm2.77-4.27c-.43-4.24-3.51-6.94-7.28-6.64s-6.58,3-6.49,6.64Z"/><path class="cls-2" d="M69.51,36.65c-2.4,0-4.8,0-7.2,0-2.23.05-2.42-1.36-2.4-3.06s0-3.18,2.28-3.17q7.5,0,15,0c2.3,0,2.22,1.6,2.25,3.2s-.21,3.09-2.42,3C74.51,36.6,72,36.65,69.51,36.65Z"/></g></g></svg>