<svg xmlns="http://www.w3.org/2000/svg" viewBox="0 0 102.83 102.83"><defs><style>.cls-1{fill:#9cc438;}.cls-2{fill:none;stroke:#9cc438;stroke-miterlimit:10;stroke-width:2.83px;}</style></defs><title>Ativo 8</title><g id="Camada_2" data-name="Camada 2"><g id="Camada_1-2" data-name="Camada 1"><path class="cls-1" d="M65.31,44c-1.21,3-2.08,5.5-3.23,7.83-.28.57-1.51.91-2.32.94-4.88.18-4.88.14-4.88,5.07,0,6.62-.06,13.23,0,19.84,0,1.84-.54,2.61-2.44,2.47-1.7-.12-3.41,0-5.12,0-3,0-3,0-3-2.91,0-7.26-.06-14.51,0-21.77,0-2-.52-2.73-2.62-2.68-4.65.1-4.24.55-4.24-4.18C37.54,43.28,37,44,42,44c1.74,0,2.45-.5,2.34-2.3-.12-2.13-.05-4.27,0-6.4a10.08,10.08,0,0,1,10-10.1c1.85,0,3.7,0,5.55,0,1.24,0,1.83.47,1.8,1.76,0,1.78,0,3.56,0,5.33,0,1.31-.61,1.66-1.82,1.75-4.15.28-5,1.23-5,5.45,0,5.21-.66,4.41,4.55,4.48C61.2,44,63,44,65.31,44Z"/><rect class="cls-2" x="1.42" y="1.42" width="100" height="100"/></g></g></svg>