<svg xmlns="http://www.w3.org/2000/svg" viewBox="0 0 100 100"><defs><style>.cls-1{fill:#8ecc00;}.cls-2{fill:#040506;}</style></defs><title>Ativo 11</title><g id="Camada_2" data-name="Camada 2"><g id="Camada_1-2" data-name="Camada 1"><rect class="cls-1" width="100" height="100"/><path class="cls-2" d="M63.9,42.55c-1.22,3-2.08,5.5-3.24,7.84-.28.57-1.51.91-2.32.94-4.88.18-4.88.14-4.88,5.06,0,6.62-.05,13.23,0,19.85,0,1.84-.54,2.61-2.44,2.46-1.69-.12-3.41,0-5.11,0-3,0-3,0-3-2.91,0-7.26-.07-14.51,0-21.76,0-2-.53-2.74-2.63-2.69-4.65.11-4.24.56-4.23-4.17,0-5.28-.51-4.59,4.5-4.56,1.74,0,2.45-.51,2.34-2.31-.12-2.12-.05-4.26,0-6.4a10.07,10.07,0,0,1,10-10.09c1.85,0,3.7,0,5.55,0,1.24,0,1.84.48,1.81,1.76q-.07,2.67,0,5.34c0,1.3-.62,1.66-1.83,1.74-4.15.29-5,1.23-5,5.45,0,5.21-.66,4.42,4.56,4.49C59.78,42.57,61.54,42.55,63.9,42.55Z"/></g></g></svg>