<svg xmlns="http://www.w3.org/2000/svg" viewBox="0 0 102.83 102.83"><defs><style>.cls-1{fill:#9cc438;}.cls-2{fill:none;stroke:#9cc438;stroke-miterlimit:10;stroke-width:2.83px;}</style></defs><title>Ativo 7</title><g id="Camada_2" data-name="Camada 2"><g id="Camada_1-2" data-name="Camada 1"><path class="cls-1" d="M50.79,78.48A25.38,25.38,0,0,1,25.05,52.69C25,37.94,36.29,26.8,51.14,26.85c14.46,0,25.57,11.35,25.55,26S65.39,78.49,50.79,78.48ZM66,52.76c0-8.77-6.24-15.18-15-15.26S35.83,43.67,35.7,52.37c-.12,9,6.26,15.46,15.17,15.46S66,61.5,66,52.76Z"/><path class="cls-1" d="M77.42,25.77C76.19,24,74,22.16,74,20.4c0-1.57,2.75-4.46,3.94-4.3,1.83.25,4.44,2.44,4.73,4.15s-2,3.63-3.19,5.48Z"/><circle class="cls-1" cx="79" cy="21.07" r="6.22"/><rect class="cls-2" x="1.42" y="1.42" width="100" height="100"/></g></g></svg>