<svg xmlns="http://www.w3.org/2000/svg" viewBox="0 0 100 100"><defs><style>.cls-1{fill:#8ecc00;}.cls-2{fill:#040506;}</style></defs><title>Ativo 10</title><g id="Camada_2" data-name="Camada 2"><g id="Camada_1-2" data-name="Camada 1"><rect class="cls-1" width="100" height="100"/><path class="cls-2" d="M49.38,77.07a25.4,25.4,0,0,1-25.75-25.8c0-14.74,11.24-25.88,26.09-25.84,14.46,0,25.57,11.35,25.55,26A25.39,25.39,0,0,1,49.38,77.07ZM64.61,51.34c0-8.77-6.24-15.17-15-15.25S34.41,42.25,34.29,51c-.13,9,6.25,15.46,15.16,15.46C58.21,66.41,64.57,60.09,64.61,51.34Z"/><path class="cls-1" d="M76,24.35c-1.23-1.79-3.43-3.61-3.39-5.36,0-1.58,2.75-4.47,3.94-4.31,1.84.26,4.44,2.44,4.74,4.15s-2,3.64-3.2,5.48Z"/><circle class="cls-2" cx="77.58" cy="19.65" r="6.22"/></g></g></svg>