<?xml version="1.0" encoding="utf-8"?>
<!-- Generator: Adobe Illustrator 22.0.1, SVG Export Plug-In . SVG Version: 6.00 Build 0)  -->
<svg version="1.1" id="Camada_1" xmlns="http://www.w3.org/2000/svg" xmlns:xlink="http://www.w3.org/1999/xlink" x="0px" y="0px"
	 viewBox="0 0 100 100" style="enable-background:new 0 0 100 100;" xml:space="preserve">
<style type="text/css">
	.st0{fill:#8ECC00;}
	.st1{fill:#040506;}
</style>
<title>Ativo 10</title>
<g id="Camada_2_1_">
	<g id="Camada_1-2">
		<rect class="st0" width="100" height="100"/>
		<path class="st0" d="M76,24.4c-1.2-1.8-3.4-3.6-3.4-5.4c0-1.6,2.8-4.5,3.9-4.3c1.8,0.3,4.4,2.4,4.7,4.1s-2,3.6-3.2,5.5L76,24.4z"
			/>
		<g id="AfNoUm.tif">
			<g>
				<path class="st1" d="M54.4,44.9c2.1-3.1,4.7-4.9,8.1-5.5c4.5-0.7,8.9-0.4,12.5,2.9c2.3,2,3.3,4.8,3.7,7.7
					c0.3,2.4,0.5,4.8,0.5,7.1c0.1,6.2,0,12.4,0,18.6c0,1.4,0,1.4-1.3,1.4c-3.1,0-6.2,0-9.3,0c-0.9,0-1.1-0.3-1.1-1.2
					c0-5.9,0-11.8,0-17.7c0-1.4-0.1-2.7-0.4-4c-0.5-3.2-2.2-4.7-5.3-4.9c-3.1-0.2-5.6,1.5-6.3,4.5c-0.4,1.5-0.6,3.1-0.6,4.7
					c-0.1,5.8-0.1,11.6,0,17.4c0,1-0.3,1.3-1.3,1.2c-3.1-0.1-6.2,0-9.3,0c-0.9,0-1.1-0.3-1.1-1.1c0-11.7,0-23.3,0-35
					c0-0.9,0.3-1.1,1.1-1.1c3,0,6,0,9,0c0.8,0,1.2,0.3,1.1,1.1C54.4,42.3,54.4,43.4,54.4,44.9z"/>
				<path class="st1" d="M24.5,58.5c0-5.8,0-11.5,0-17.3c0-1,0.2-1.3,1.2-1.3c3.1,0,6.2,0,9.2,0c0.9,0,1.2,0.2,1.2,1.2
					c0,11.6,0,23.2,0,34.8c0,0.9-0.2,1.2-1.2,1.2c-3.1-0.1-6.2-0.1-9.2,0c-1,0-1.3-0.2-1.3-1.2C24.6,70.1,24.5,64.3,24.5,58.5z"/>
				<path class="st1" d="M37.2,28.5c-0.1,3.8-3.1,6.8-6.8,6.8c-3.8,0-6.8-3.2-6.8-6.9c0.1-3.7,3.2-6.7,6.8-6.7
					C34.1,21.7,37.2,24.8,37.2,28.5z"/>
			</g>
		</g>
	</g>
</g>
</svg>
